<?xml version="1.0" encoding="utf-8"?>
<!-- Generator: Adobe Illustrator 26.1.0, SVG Export Plug-In . SVG Version: 6.00 Build 0)  -->
<svg version="1.1" xmlns="http://www.w3.org/2000/svg" xmlns:xlink="http://www.w3.org/1999/xlink" x="0px" y="0px"
	 viewBox="0 0 32 32" style="enable-background:new 0 0 32 32;" xml:space="preserve">
<style type="text/css">
	.st0{display:none;}
	.st1{display:inline;}
	.st2{fill:#3C3C3B;}
	.st3{display:inline;fill:#FFFFFF;}
	.st4{display:inline;fill:#3C3C3B;}
	.st5{display:none;fill:#F6F6F6;}
	.st6{fill:url(#SVGID_1_);stroke:url(#SVGID_00000149343365311316123880000008579093379923882407_);stroke-miterlimit:10;}
	.st7{fill:#232323;}
	
		.st8{fill:url(#SVGID_00000072253719463586758930000017168675487985423232_);stroke:url(#SVGID_00000004507792815126228710000013596589398126411933_);stroke-miterlimit:10;}
	.st9{display:inline;fill:url(#SVGID_00000057866986521576464290000008280878414502270599_);}
	.st10{display:none;fill:#232323;stroke:url(#SVGID_00000068673545302999237640000000499328656331531440_);stroke-miterlimit:10;}
	.st11{display:none;fill:#232323;stroke:url(#SVGID_00000131368129056704582240000007099022922001348242_);stroke-miterlimit:10;}
	.st12{fill:#232323;stroke:url(#SVGID_00000162316095611198246100000008370758200288273079_);stroke-miterlimit:10;}
	.st13{fill:#232323;stroke:url(#SVGID_00000097463956959709561350000001174757061486399887_);stroke-miterlimit:10;}
	.st14{fill:#F6F6F6;}
	.st15{display:inline;fill:#F6F6F6;stroke:url(#SVGID_00000028310509686017513960000014041956538924013996_);stroke-miterlimit:10;}
	.st16{display:inline;fill:#F6F6F6;stroke:url(#SVGID_00000062879161904702949340000000671813568564879038_);stroke-miterlimit:10;}
	
		.st17{display:inline;fill:url(#SVGID_00000122681415557390206590000007754226087146218123_);stroke:url(#SVGID_00000155106714893027108040000009272056321111338113_);stroke-miterlimit:10;}
	.st18{display:inline;fill:#F6F6F6;}
	
		.st19{display:inline;fill:url(#SVGID_00000131367626092643262490000011077558766189895351_);stroke:url(#SVGID_00000159447492208537276480000003306200582194095500_);stroke-miterlimit:10;}
	.st20{display:inline;fill:url(#SVGID_00000056428913203611001070000005808363932212827041_);}
	.st21{fill:#232323;stroke:url(#SVGID_00000077313158409799979470000015552755523476885894_);stroke-miterlimit:10;}
	.st22{fill:#232323;stroke:url(#SVGID_00000067958429149719209520000002266097758786209463_);stroke-miterlimit:10;}
	.st23{display:inline;fill:url(#SVGID_00000167387183632179522450000004669605224011709579_);}
	
		.st24{display:inline;fill:url(#SVGID_00000041292866918929855420000010826792325046488763_);stroke:url(#SVGID_00000113315403513743565440000009756324830812059789_);stroke-miterlimit:10;}
	.st25{fill:#706F6F;}
	.st26{fill:none;}
	.st27{fill:#575756;}
	.st28{display:inline;fill:#878787;}
	.st29{display:inline;fill:#706F6F;}
	.st30{display:inline;fill:#B2B2B2;}
	.st31{display:inline;fill:#575756;}
</style>
<g id="Layer_1" class="st0">
	<g class="st1">
		<path class="st2" d="M24,2.14H8L0,16l8,13.86c0,0,3.6-9.56,11.18-13.86S24,29.86,24,29.86L32,16L24,2.14z"/>
	</g>
	<path class="st3" d="M8.19,20.82c0,0-0.98-25.71,13.81-9.62C22,11.21,14.57,10.65,8.19,20.82z"/>
</g>
<g id="Layer_5" class="st0">
	<polygon class="st4" points="21.53,9.19 11.48,9.19 6.45,17.9 11.48,26.6 21.53,26.6 26.56,17.9 	"/>
	<polygon class="st4" points="24.5,4.04 8.5,4.04 0.5,17.9 8.5,31.75 24.5,31.75 32.5,17.9 	"/>
</g>
<g id="Layer_3" class="st0">
	<polygon class="st4" points="24,2.14 8,2.14 0,16 8,29.86 10.14,26.14 4.29,16 10.14,5.86 21.86,5.86 27.71,16 21.86,26.14 
		24,29.86 32,16 	"/>
	<path class="st4" d="M4.29,16c0,0,13.5-3.81,22.32-1.9c3.01,0.65,0.06,3.7,0.06,3.7s-11.72,0.25-16.53,8.34
		C5.33,34.25,4.29,16,4.29,16z"/>
</g>
<g id="Layer_4" class="st0">
	<polygon class="st4" points="24.5,4.04 8.5,4.04 0.5,17.9 8.5,31.75 11.48,26.6 6.45,17.9 11.48,9.19 21.53,9.19 26.56,17.9 
		21.53,26.6 24.5,31.75 32.5,17.9 	"/>
</g>
<g id="Layer_9">
	<circle class="st5" cx="16" cy="16" r="16"/>
	
		<linearGradient id="SVGID_1_" gradientUnits="userSpaceOnUse" x1="9.1793" y1="18.8256" x2="23.0694" y2="13.0696" gradientTransform="matrix(1.5345 -0.09 -0.09 1.0152 -7.3069 1.2308)">
		<stop  offset="0.1525" style="stop-color:#232323"/>
		<stop  offset="0.2037" style="stop-color:#235456"/>
		<stop  offset="0.2567" style="stop-color:#237F84"/>
		<stop  offset="0.3099" style="stop-color:#24A3AA"/>
		<stop  offset="0.3626" style="stop-color:#24BEC7"/>
		<stop  offset="0.4146" style="stop-color:#24D2DC"/>
		<stop  offset="0.4655" style="stop-color:#24DEE9"/>
		<stop  offset="0.514" style="stop-color:#24E2ED"/>
	</linearGradient>
	
		<radialGradient id="SVGID_00000141441330104579595390000011544615762931346325_" cx="16.1244" cy="15.9476" r="6.1475" gradientTransform="matrix(1.5345 -0.09 -0.09 1.0152 -7.3069 1.2308)" gradientUnits="userSpaceOnUse">
		<stop  offset="0" style="stop-color:#FFFFFF;stop-opacity:0"/>
		<stop  offset="1" style="stop-color:#000000;stop-opacity:0"/>
	</radialGradient>
	
		<path style="fill:url(#SVGID_1_);stroke:url(#SVGID_00000141441330104579595390000011544615762931346325_);stroke-miterlimit:10;" d="
		M26.92,15.82L5.63,19.41c-0.44,0.07-0.85-0.22-0.92-0.66l-0.29-1.71c-0.07-0.44,0.22-0.85,0.66-0.92l21.29-3.59
		c0.44-0.07,0.85,0.22,0.92,0.66l0.29,1.71C27.65,15.34,27.36,15.75,26.92,15.82z"/>
	<path class="st7" d="M23.52,2.12H8.48c-0.3,0-0.57,0.16-0.72,0.41L0.25,15.55c-0.15,0.26-0.15,0.57,0,0.83l7.04,12.19
		c0.32,0.55,1.11,0.55,1.43,0l2.02-3.49c0.15-0.26,0.15-0.57,0-0.83l-4.55-7.87c-0.15-0.26-0.15-0.57,0-0.83l4.55-7.87
		c0.15-0.26,0.42-0.41,0.72-0.41h9.09c0.3,0,0.57,0.16,0.72,0.41l4.55,7.87c0.15,0.26,0.15,0.57,0,0.83l-4.55,7.87
		c-0.15,0.26-0.15,0.57,0,0.83l2.02,3.49c0.32,0.55,1.11,0.55,1.43,0l7.04-12.19c0.15-0.26,0.15-0.57,0-0.83L24.23,2.53
		C24.09,2.28,23.81,2.12,23.52,2.12z"/>
	
		<radialGradient id="SVGID_00000084497547696712628960000017247240874733803180_" cx="12.5827" cy="14.9019" r="17.5026" gradientTransform="matrix(0.9893 -0.1456 0.0437 0.2968 -0.5167 12.3105)" gradientUnits="userSpaceOnUse">
		<stop  offset="0" style="stop-color:#FFFFFF"/>
		<stop  offset="0.2764" style="stop-color:#F3AEF6"/>
		<stop  offset="0.543" style="stop-color:#E766EF"/>
		<stop  offset="0.7332" style="stop-color:#E139EA"/>
		<stop  offset="0.8291" style="stop-color:#DE28E8"/>
	</radialGradient>
	
		<radialGradient id="SVGID_00000000208827606827938320000015563817571861137033_" cx="21.7129" cy="10.6107" r="8.9145" gradientUnits="userSpaceOnUse">
		<stop  offset="0" style="stop-color:#FFFFFF;stop-opacity:0"/>
		<stop  offset="1" style="stop-color:#000000;stop-opacity:0"/>
	</radialGradient>
	
		<path style="fill:url(#SVGID_00000084497547696712628960000017247240874733803180_);stroke:url(#SVGID_00000000208827606827938320000015563817571861137033_);stroke-miterlimit:10;" d="
		M11.24,15.08c0,0,3.33-0.56,4.76,0.89s4.45,0.96,4.45,0.96l11.02-1.86l-5.42-9.39C26.24,12.72,11.24,15.08,11.24,15.08z"/>
	<g class="st0">
		
			<radialGradient id="SVGID_00000170961251736988044420000005824274710165751726_" cx="13.3171" cy="16.3631" r="13.7617" gradientUnits="userSpaceOnUse">
			<stop  offset="0" style="stop-color:#2AD7E1"/>
			<stop  offset="0.1673" style="stop-color:#FFFFFF"/>
			<stop  offset="0.2465" style="stop-color:#F4E9F7"/>
			<stop  offset="0.4593" style="stop-color:#DBB1E2"/>
			<stop  offset="0.6426" style="stop-color:#C889D3"/>
			<stop  offset="0.7873" style="stop-color:#BC70C9"/>
			<stop  offset="0.8753" style="stop-color:#B867C6"/>
		</radialGradient>
		<path style="display:inline;fill:url(#SVGID_00000170961251736988044420000005824274710165751726_);" d="M15.22,15.43
			c0,0,7.65-1.76,8.25-3.93l1.62,2.81l-8.87,1.86C16.22,16.17,9.63,17.26,15.22,15.43z"/>
	</g>
	
		<radialGradient id="SVGID_00000174568384752844664030000010120536696555803828_" cx="6.8577" cy="15.5577" r="1.5271" gradientUnits="userSpaceOnUse">
		<stop  offset="0" style="stop-color:#FFFFFF;stop-opacity:0"/>
		<stop  offset="1" style="stop-color:#000000;stop-opacity:0"/>
	</radialGradient>
	
		<path style="display:none;fill:#232323;stroke:url(#SVGID_00000174568384752844664030000010120536696555803828_);stroke-miterlimit:10;" d="
		M6.67,14.73c0,0-0.72,1.24,1.98,0.79l-2.69,0.45L6.67,14.73z"/>
	
		<radialGradient id="SVGID_00000053523718421661359770000007231235497517069457_" cx="8.045" cy="19.2352" r="1.0064" gradientUnits="userSpaceOnUse">
		<stop  offset="0" style="stop-color:#FFFFFF;stop-opacity:0"/>
		<stop  offset="1" style="stop-color:#000000;stop-opacity:0"/>
	</radialGradient>
	
		<path style="display:none;fill:#232323;stroke:url(#SVGID_00000053523718421661359770000007231235497517069457_);stroke-miterlimit:10;" d="
		M9.07,18.83l-1.33,0.22l0.48,0.83C8.21,19.88,7.78,19.05,9.07,18.83z"/>
	
		<radialGradient id="SVGID_00000170976750557650094210000003556685049759411607_" cx="6.2417" cy="15.8035" r="1.0762" gradientUnits="userSpaceOnUse">
		<stop  offset="0" style="stop-color:#FFFFFF;stop-opacity:0"/>
		<stop  offset="1" style="stop-color:#000000;stop-opacity:0"/>
	</radialGradient>
	<path style="fill:#232323;stroke:url(#SVGID_00000170976750557650094210000003556685049759411607_);stroke-miterlimit:10;" d="
		M5.94,15.97l0.43-0.73c0,0-0.48,0.74,0.39,0.59S5.94,15.97,5.94,15.97z"/>
	
		<radialGradient id="SVGID_00000100383048318370858090000012229912551774879919_" cx="7.6531" cy="19.0683" r="0.6498" gradientUnits="userSpaceOnUse">
		<stop  offset="0" style="stop-color:#FFFFFF;stop-opacity:0"/>
		<stop  offset="1" style="stop-color:#000000;stop-opacity:0"/>
	</radialGradient>
	<path style="fill:#232323;stroke:url(#SVGID_00000100383048318370858090000012229912551774879919_);stroke-miterlimit:10;" d="
		M7.93,19.4l-0.2-0.34l0.43-0.07C8.16,18.98,7.73,19.04,7.93,19.4z"/>
</g>
<g id="Layer_10" class="st0">
	<circle class="st14" cx="16" cy="16" r="16"/>
	
		<radialGradient id="SVGID_00000073708234026512553610000009638596181325722022_" cx="7.6531" cy="19.0683" r="0.6498" gradientUnits="userSpaceOnUse">
		<stop  offset="0" style="stop-color:#FFFFFF;stop-opacity:0"/>
		<stop  offset="1" style="stop-color:#000000;stop-opacity:0"/>
	</radialGradient>
	
		<path style="display:inline;fill:#F6F6F6;stroke:url(#SVGID_00000073708234026512553610000009638596181325722022_);stroke-miterlimit:10;" d="
		M7.93,19.4l-0.2-0.34l0.43-0.07C8.16,18.98,7.73,19.04,7.93,19.4z"/>
	
		<radialGradient id="SVGID_00000152945777859685697420000004432145855592867234_" cx="6.2417" cy="15.8035" r="1.0762" gradientUnits="userSpaceOnUse">
		<stop  offset="0" style="stop-color:#FFFFFF;stop-opacity:0"/>
		<stop  offset="1" style="stop-color:#000000;stop-opacity:0"/>
	</radialGradient>
	
		<path style="display:inline;fill:#F6F6F6;stroke:url(#SVGID_00000152945777859685697420000004432145855592867234_);stroke-miterlimit:10;" d="
		M5.94,15.97l0.43-0.73c0,0-0.48,0.74,0.39,0.59S5.94,15.97,5.94,15.97z"/>
	
		<linearGradient id="SVGID_00000034071281563928686170000015827562304426190250_" gradientUnits="userSpaceOnUse" x1="9.1793" y1="18.8256" x2="23.0694" y2="13.0696" gradientTransform="matrix(1.5345 -0.09 -0.09 1.0152 -7.3069 1.2308)">
		<stop  offset="0.1525" style="stop-color:#F6F6F6"/>
		<stop  offset="0.1569" style="stop-color:#F1F6F6"/>
		<stop  offset="0.2091" style="stop-color:#BBF0F3"/>
		<stop  offset="0.2618" style="stop-color:#8DECF1"/>
		<stop  offset="0.314" style="stop-color:#67E8F0"/>
		<stop  offset="0.3656" style="stop-color:#4AE6EF"/>
		<stop  offset="0.4166" style="stop-color:#35E4EE"/>
		<stop  offset="0.4664" style="stop-color:#28E2ED"/>
		<stop  offset="0.514" style="stop-color:#24E2ED"/>
	</linearGradient>
	
		<radialGradient id="SVGID_00000022533766943348188560000011136719930883083709_" cx="16.1244" cy="15.9476" r="6.1475" gradientTransform="matrix(1.5345 -0.09 -0.09 1.0152 -7.3069 1.2308)" gradientUnits="userSpaceOnUse">
		<stop  offset="0" style="stop-color:#FFFFFF;stop-opacity:0"/>
		<stop  offset="1" style="stop-color:#000000;stop-opacity:0"/>
	</radialGradient>
	
		<path style="display:inline;fill:url(#SVGID_00000034071281563928686170000015827562304426190250_);stroke:url(#SVGID_00000022533766943348188560000011136719930883083709_);stroke-miterlimit:10;" d="
		M26.92,15.82L5.63,19.41c-0.44,0.07-0.85-0.22-0.92-0.66l-0.29-1.71c-0.07-0.44,0.22-0.85,0.66-0.92l21.29-3.59
		c0.44-0.07,0.85,0.22,0.92,0.66l0.29,1.71C27.65,15.34,27.36,15.75,26.92,15.82z"/>
	<path class="st18" d="M23.52,2.12H8.48c-0.3,0-0.57,0.16-0.72,0.41L0.25,15.55c-0.15,0.26-0.15,0.57,0,0.83l7.04,12.19
		c0.32,0.55,1.11,0.55,1.43,0l2.02-3.49c0.15-0.26,0.15-0.57,0-0.83l-4.55-7.87c-0.15-0.26-0.15-0.57,0-0.83l4.55-7.87
		c0.15-0.26,0.42-0.41,0.72-0.41h9.09c0.3,0,0.57,0.16,0.72,0.41l4.55,7.87c0.15,0.26,0.15,0.57,0,0.83l-4.55,7.87
		c-0.15,0.26-0.15,0.57,0,0.83l2.02,3.49c0.32,0.55,1.11,0.55,1.43,0l7.04-12.19c0.15-0.26,0.15-0.57,0-0.83L24.23,2.53
		C24.09,2.28,23.81,2.12,23.52,2.12z"/>
	
		<radialGradient id="SVGID_00000139274602790205435420000009936956363410985118_" cx="12.5827" cy="14.9019" r="17.5026" gradientTransform="matrix(0.9893 -0.1456 0.0437 0.2968 -0.5167 12.3105)" gradientUnits="userSpaceOnUse">
		<stop  offset="0" style="stop-color:#FFFFFF"/>
		<stop  offset="0.2764" style="stop-color:#F3AEF6"/>
		<stop  offset="0.543" style="stop-color:#E766EF"/>
		<stop  offset="0.7332" style="stop-color:#E139EA"/>
		<stop  offset="0.8291" style="stop-color:#DE28E8"/>
	</radialGradient>
	
		<radialGradient id="SVGID_00000071538555435168352390000005042026357477019526_" cx="21.7129" cy="10.6107" r="8.9145" gradientUnits="userSpaceOnUse">
		<stop  offset="0" style="stop-color:#FFFFFF;stop-opacity:0"/>
		<stop  offset="1" style="stop-color:#000000;stop-opacity:0"/>
	</radialGradient>
	
		<path style="display:inline;fill:url(#SVGID_00000139274602790205435420000009936956363410985118_);stroke:url(#SVGID_00000071538555435168352390000005042026357477019526_);stroke-miterlimit:10;" d="
		M11.24,15.08c0,0,3.33-0.56,4.76,0.89s4.45,0.96,4.45,0.96l11.02-1.86l-5.42-9.39C26.24,12.72,11.24,15.08,11.24,15.08z"/>
	<g>
		
			<radialGradient id="SVGID_00000121251223131150793810000001491507459936045735_" cx="8.1847" cy="14.7589" r="13.7617" gradientUnits="userSpaceOnUse">
			<stop  offset="0" style="stop-color:#2AD7E1"/>
			<stop  offset="0.1673" style="stop-color:#FFFFFF"/>
			<stop  offset="0.2465" style="stop-color:#F4E9F7"/>
			<stop  offset="0.4593" style="stop-color:#DBB1E2"/>
			<stop  offset="0.6426" style="stop-color:#C889D3"/>
			<stop  offset="0.7873" style="stop-color:#BC70C9"/>
			<stop  offset="0.8753" style="stop-color:#B867C6"/>
		</radialGradient>
		<path style="display:inline;fill:url(#SVGID_00000121251223131150793810000001491507459936045735_);" d="M10.09,13.82
			c0,0,7.65-1.76,8.25-3.93l1.62,2.81l-8.87,1.86C11.09,14.56,4.5,15.65,10.09,13.82z"/>
	</g>
	
		<radialGradient id="SVGID_00000065047439420063213790000015167594778633678978_" cx="1.7253" cy="13.9535" r="1.5271" gradientUnits="userSpaceOnUse">
		<stop  offset="0" style="stop-color:#FFFFFF;stop-opacity:0"/>
		<stop  offset="1" style="stop-color:#000000;stop-opacity:0"/>
	</radialGradient>
	<path style="fill:#232323;stroke:url(#SVGID_00000065047439420063213790000015167594778633678978_);stroke-miterlimit:10;" d="
		M1.54,13.12c0,0-0.72,1.24,1.98,0.79l-2.69,0.45L1.54,13.12z"/>
	
		<radialGradient id="SVGID_00000147917759148650129630000003881917964043947197_" cx="2.9126" cy="17.6311" r="1.0064" gradientUnits="userSpaceOnUse">
		<stop  offset="0" style="stop-color:#FFFFFF;stop-opacity:0"/>
		<stop  offset="1" style="stop-color:#000000;stop-opacity:0"/>
	</radialGradient>
	<path style="fill:#232323;stroke:url(#SVGID_00000147917759148650129630000003881917964043947197_);stroke-miterlimit:10;" d="
		M3.93,17.23L2.6,17.45l0.48,0.83C3.08,18.28,2.65,17.44,3.93,17.23z"/>
</g>
<g id="Layer_7" class="st0">
	<polygon class="st4" points="24,2.14 32,16 26.05,16 21.03,7.29 	"/>
	
		<radialGradient id="SVGID_00000127033026088290159170000013836088890640958108_" cx="22.2951" cy="14.3582" r="16.2464" fx="8.4931" fy="14.5279" gradientTransform="matrix(0.9716 -0.2365 0.0473 0.1943 -0.0466 16.8414)" gradientUnits="userSpaceOnUse">
		<stop  offset="0.1912" style="stop-color:#FBE8FC"/>
		<stop  offset="0.4341" style="stop-color:#F2DCF7"/>
		<stop  offset="0.5627" style="stop-color:#C9A6DF"/>
		<stop  offset="0.7112" style="stop-color:#9E6DC6"/>
		<stop  offset="0.8217" style="stop-color:#8349B6"/>
		<stop  offset="0.8808" style="stop-color:#793CB0"/>
	</radialGradient>
	<path style="display:inline;fill:url(#SVGID_00000127033026088290159170000013836088890640958108_);" d="M31.84,11.66
		c-1.93,3.77-12.94,5.55-12.94,5.55l-0.56-3.3c0,0,10.41-1.52,10.24-8.38"/>
	
		<linearGradient id="SVGID_00000064327249054059317250000012228832955390523265_" gradientUnits="userSpaceOnUse" x1="4.6269" y1="17.8414" x2="19.5053" y2="15.4849">
		<stop  offset="0.076" style="stop-color:#3C3C3B"/>
		<stop  offset="0.205" style="stop-color:#35696B"/>
		<stop  offset="0.3696" style="stop-color:#2E9DA3"/>
		<stop  offset="0.5115" style="stop-color:#29C2CB"/>
		<stop  offset="0.6235" style="stop-color:#25D9E4"/>
		<stop  offset="0.6916" style="stop-color:#24E2ED"/>
	</linearGradient>
	
		<radialGradient id="SVGID_00000119818927610210680680000008822721383125117880_" cx="12.0288" cy="16.669" r="6.1356" gradientUnits="userSpaceOnUse">
		<stop  offset="0" style="stop-color:#FFFFFF;stop-opacity:0"/>
		<stop  offset="1" style="stop-color:#000000;stop-opacity:0"/>
	</radialGradient>
	
		<path style="display:inline;fill:url(#SVGID_00000064327249054059317250000012228832955390523265_);stroke:url(#SVGID_00000119818927610210680680000008822721383125117880_);stroke-miterlimit:10;" d="
		M18.9,17.21L5.71,19.43c-0.44,0.07-0.85-0.22-0.92-0.66L4.5,17.05c-0.07-0.44,0.22-0.85,0.66-0.92l13.18-2.22
		c0.44-0.07,0.85,0.22,0.92,0.66l0.29,1.71C19.63,16.72,19.33,17.13,18.9,17.21z"/>
	<path class="st4" d="M6.34,15.93c0,0,0.35-0.06,0.57,0.3c0.2,0.34,1.4,2.21,1.79,2.46c0.32,0.2,0.65,0.13,0.65,0.13l-0.85,0.15
		c0,0-0.33,0.07-0.65-0.13c-0.39-0.25-1.56-2.13-1.79-2.46c-0.22-0.32-0.57-0.3-0.57-0.3L6.34,15.93z"/>
	<path class="st4" d="M9.29,15.43c0,0,0.35-0.06,0.57,0.3c0.2,0.34,1.4,2.21,1.79,2.46c0.32,0.2,0.65,0.13,0.65,0.13l-0.85,0.15
		c0,0-0.33,0.07-0.65-0.13c-0.39-0.25-1.56-2.13-1.79-2.46c-0.22-0.32-0.57-0.3-0.57-0.3L9.29,15.43z"/>
	<path class="st4" d="M12.25,14.93c0,0,0.35-0.06,0.57,0.3c0.2,0.34,1.4,2.21,1.79,2.46c0.32,0.2,0.65,0.13,0.65,0.13l-0.85,0.15
		c0,0-0.33,0.07-0.65-0.13c-0.39-0.25-1.56-2.13-1.79-2.46c-0.22-0.32-0.57-0.3-0.57-0.3L12.25,14.93z"/>
	<path class="st4" d="M15.21,14.43c0,0,0.35-0.06,0.57,0.3c0.2,0.34,1.4,2.21,1.79,2.46c0.32,0.2,0.65,0.13,0.65,0.13l-0.85,0.15
		c0,0-0.33,0.07-0.65-0.13c-0.39-0.25-1.56-2.13-1.79-2.46c-0.22-0.32-0.57-0.3-0.57-0.3L15.21,14.43z"/>
	<path class="st2" d="M18.17,13.93c0,0,0.35-0.06,0.57,0.3c0.2,0.34,1.4,2.21,1.79,2.46c0.32,0.2,0.65,0.13,0.65,0.13l-0.85,0.15
		c0,0-0.33,0.07-0.65-0.13c-0.39-0.25-1.56-2.13-1.79-2.46c-0.22-0.32-0.57-0.3-0.57-0.3L18.17,13.93z"/>
	<polygon class="st4" points="8.48,18.96 7.73,19.09 5.95,16 	"/>
	<polyline class="st4" points="26.05,16 32,16 24,29.86 21.03,24.71 26.05,16 	"/>
	<polyline class="st4" points="21.03,7.29 10.97,7.29 5.95,16 10.97,24.71 8,29.86 0,16 8,2.14 24,2.14 21.03,7.29 	"/>
</g>
<g id="Layer_6" class="st0">
	<circle class="st4" cx="16" cy="16" r="16"/>
	<path class="st18" d="M29.66,15.45L23.25,4.34c-0.17-0.3-0.49-0.48-0.84-0.48H9.59c-0.35,0-0.66,0.18-0.84,0.48L2.34,15.45
		c-0.17,0.3-0.17,0.67,0,0.97l5.85,10.14c0.37,0.64,1.3,0.64,1.67,0L11.34,24c0.17-0.3,0.17-0.67,0-0.97l-2.18-3.77
		c2.23-2.31,6.84-2.23,6.84-2.23s4.61-0.08,6.84,2.23l-2.18,3.77c-0.17,0.3-0.17,0.67,0,0.97l1.47,2.55c0.37,0.64,1.3,0.64,1.67,0
		l5.85-10.14C29.83,16.11,29.83,15.74,29.66,15.45z M16,13.61c-4.92-0.02-7.89,1.74-8.59,2.21c0.02-0.13,0.05-0.25,0.11-0.37
		l3.82-6.62c0.17-0.3,0.49-0.48,0.84-0.48h7.64c0.35,0,0.66,0.18,0.84,0.48l3.82,6.62c0.07,0.12,0.1,0.24,0.11,0.37
		C23.89,15.35,20.92,13.59,16,13.61z"/>
</g>
<g id="Layer_8" class="st0">
	<polygon class="st25" points="19.01,6.66 13.07,6.66 10.11,8.11 13.07,9.55 19.01,9.55 21.97,8.11 	"/>
	<polygon class="st4" points="13.03,0 10.11,8.11 13.07,9.55 10.07,1.44 	"/>
	<g class="st1">
		<polygon class="st26" points="12.08,20.47 16.03,20.47 17.13,20.47 14.98,14.68 14.05,14.68 		"/>
		<polygon class="st2" points="21.97,8.11 17.72,8.11 24.27,15.42 		"/>
		<polygon class="st27" points="17.72,8.11 13.03,2.88 10.07,1.44 12.54,8.11 16.03,8.11 		"/>
		<polygon class="st27" points="24.27,15.42 24.27,15.42 24.27,15.42 		"/>
	</g>
	<polygon class="st28" points="18.97,2.88 21.97,8.11 19.01,6.66 21.93,1.44 	"/>
	<polygon class="st29" points="13.03,2.88 24.27,15.42 21.97,8.11 18.97,2.88 	"/>
	<polygon class="st30" points="18.97,0 13.03,0 10.07,1.44 13.03,2.88 18.97,2.88 21.93,1.44 	"/>
	<polygon class="st4" points="8.52,32 10.08,27.05 16.03,27.05 19.57,27.05 17.13,20.47 16.03,20.47 12.08,20.47 14.05,14.68 
		14.98,14.68 12.54,8.11 10.08,8.11 2.57,32 	"/>
	<polygon class="st31" points="16.03,14.68 18,14.68 19.97,20.47 17.13,20.47 19.57,27.05 21.97,27.05 23.53,32 29.48,32 
		24.27,15.42 24.27,15.42 17.72,8.11 16.03,8.11 12.54,8.11 14.98,14.68 	"/>
	<polygon class="st4" points="29.48,32 24.27,15.42 29.48,32 25.32,32 	"/>
</g>
</svg>
